<svg id="visual" viewBox="0 0 900 600" width="900" height="600" xmlns="http://www.w3.org/2000/svg" xmlns:xlink="http://www.w3.org/1999/xlink" version="1.1"><rect x="0" y="0" width="900" height="600" fill="#ffffff"></rect><defs><linearGradient id="grad1_0" x1="33.3%" y1="0%" x2="100%" y2="100%"><stop offset="20%" stop-color="#80b9ad" stop-opacity="1"></stop><stop offset="80%" stop-color="#80b9ad" stop-opacity="1"></stop></linearGradient></defs><defs><linearGradient id="grad1_1" x1="33.3%" y1="0%" x2="100%" y2="100%"><stop offset="20%" stop-color="#80b9ad" stop-opacity="1"></stop><stop offset="80%" stop-color="#ffffff" stop-opacity="1"></stop></linearGradient></defs><defs><linearGradient id="grad2_0" x1="0%" y1="0%" x2="66.7%" y2="100%"><stop offset="20%" stop-color="#80b9ad" stop-opacity="1"></stop><stop offset="80%" stop-color="#80b9ad" stop-opacity="1"></stop></linearGradient></defs><defs><linearGradient id="grad2_1" x1="0%" y1="0%" x2="66.7%" y2="100%"><stop offset="20%" stop-color="#ffffff" stop-opacity="1"></stop><stop offset="80%" stop-color="#80b9ad" stop-opacity="1"></stop></linearGradient></defs><g transform="translate(900, 0)"><path d="M0 459.7C-55.1 441.4 -110.3 423 -167.2 403.7C-224.2 384.4 -283 364.2 -325.1 325.1C-367.1 286 -392.4 228 -412.1 170.7C-431.7 113.4 -445.7 56.7 -459.7 0L0 0Z" fill="#c0dcd5"></path><path d="M0 229.9C-27.6 220.7 -55.1 211.5 -83.6 201.9C-112.1 192.2 -141.5 182.1 -162.5 162.5C-183.6 143 -196.2 114 -206 85.3C-215.8 56.7 -222.9 28.3 -229.9 0L0 0Z" fill="#80b9ad"></path></g><g transform="translate(0, 600)"><path d="M0 -459.7C50.4 -431.2 100.8 -402.7 159.6 -385.3C218.3 -367.8 285.5 -361.4 325.1 -325.1C364.6 -288.8 376.6 -222.6 394.5 -163.4C412.3 -104.2 436 -52.1 459.7 0L0 0Z" fill="#c0dcd5"></path><path d="M0 -229.9C25.2 -215.6 50.4 -201.4 79.8 -192.6C109.2 -183.9 142.7 -180.7 162.5 -162.5C182.3 -144.4 188.3 -111.3 197.2 -81.7C206.2 -52.1 218 -26.1 229.9 0L0 0Z" fill="#80b9ad"></path></g></svg>